Next_Regular.ufo
<glyph name="exclam" format="2">
  <advance width="256"/>
  <unicode hex="0021"/>
  <outline>
    <contour>
      <point x="186" y="44" type="curve" smooth="yes"/>
      <point x="186" y="5"/>
      <point x="156" y="-16"/>
      <point x="128" y="-16" type="curve" smooth="yes"/>
      <point x="98" y="-16"/>
      <point x="70" y="5"/>
      <point x="70" y="44" type="curve" smooth="yes"/>
      <point x="70" y="83"/>
      <point x="98" y="104"/>
      <point x="128" y="104" type="curve" smooth="yes"/>
      <point x="156" y="104"/>
      <point x="186" y="83"/>
    </contour>
    <contour>
      <point x="88" y="740" type="line"/>
      <point x="168" y="740" type="line"/>
      <point x="160" y="210" type="line"/>
      <point x="96" y="210" type="line"/>
    </contour>
  </outline>
</glyph>
<glyph name="quotedbl" format="2">
  <advance width="366"/>
  <unicode hex="0022"/>
  <outline>
    <contour>
      <point x="70" y="775" type="line"/>
      <point x="148" y="775" type="line"/>
      <point x="139" y="535" type="line"/>
      <point x="79" y="535" type="line"/>
    </contour>
    <contour>
      <point x="218" y="775" type="line"/>
      <point x="296" y="775" type="line"/>
      <point x="287" y="535" type="line"/>
      <point x="227" y="535" type="line"/>
    </contour>
  </outline>
</glyph>
<glyph name="numbersign" format="2">
  <advance width="754"/>
  <unicode hex="0023"/>
  <outline>
    <contour>
      <point x="269" y="710" type="line"/>
      <point x="339" y="710" type="line"/>
      <point x="225" y="-12" type="line"/>
      <point x="155" y="-12" type="line"/>
    </contour>
    <contour>
      <point x="70" y="210" type="line"/>
      <point x="650" y="210" type="line"/>
      <point x="640" y="148" type="line"/>
      <point x="60" y="148" type="line"/>
    </contour>
    <contour>
      <point x="114" y="550" type="line"/>
      <point x="694" y="550" type="line"/>
      <point x="684" y="488" type="line"/>
      <point x="104" y="488" type="line"/>
    </contour>
    <contour>
      <point x="529" y="710" type="line"/>
      <point x="599" y="710" type="line"/>
      <point x="485" y="-12" type="line"/>
      <point x="415" y="-12" type="line"/>
    </contour>
  </outline>
</glyph>
<glyph name="quotesingle" format="2">
  <advance width="218"/>
  <unicode hex="0027"/>
  <outline>
    <contour>
      <point x="70" y="775" type="line"/>
      <point x="148" y="775" type="line"/>
      <point x="143" y="485" type="line"/>
      <point x="75" y="485" type="line"/>
    </contour>
  </outline>
</glyph>
<glyph name="parenleft" format="2">
  <advance width="356"/>
  <unicode hex="0028"/>
  <outline>
    <contour>
      <point x="140" y="307" type="curve" smooth="yes"/>
      <point x="140" y="-12"/>
      <point x="313" y="-112"/>
      <point x="313" y="-112" type="curve"/>
      <point x="277" y="-168" type="line"/>
      <point x="277" y="-168"/>
      <point x="60" y="-38"/>
      <point x="60" y="307" type="curve" smooth="yes"/>
      <point x="60" y="652"/>
      <point x="277" y="782"/>
      <point x="277" y="782" type="curve"/>
      <point x="313" y="726" type="line"/>
      <point x="313" y="726"/>
      <point x="140" y="626"/>
    </contour>
  </outline>
</glyph>
<glyph name="parenright" format="2">
  <advance width="353"/>
  <unicode hex="0029"/>
  <outline>
    <contour>
      <point x="213" y="307" type="curve" smooth="yes"/>
      <point x="213" y="626"/>
      <point x="40" y="726"/>
      <point x="40" y="726" type="curve"/>
      <point x="76" y="782" type="line"/>
      <point x="76" y="782"/>
      <point x="293" y="652"/>
      <point x="293" y="307" type="curve" smooth="yes"/>
      <point x="293" y="-38"/>
      <point x="76" y="-168"/>
      <point x="76" y="-168" type="curve"/>
      <point x="40" y="-112" type="line"/>
      <point x="40" y="-112"/>
      <point x="213" y="-12"/>
    </contour>
  </outline>
</glyph>
<glyph name="comma" format="2">
  <advance width="260"/>
  <unicode hex="002C"/>
  <outline>
    <contour>
      <point x="85" y="-151" type="line"/>
      <point x="25" y="-151" type="line"/>
      <point x="90" y="88" type="line"/>
      <point x="190" y="88" type="line"/>
    </contour>
  </outline>
</glyph>
<glyph name="period" format="2">
  <advance width="256"/>
  <unicode hex="002E"/>
  <outline>
    <contour>
      <point x="186" y="44" type="curve" smooth="yes"/>
      <point x="186" y="5"/>
      <point x="156" y="-16"/>
      <point x="128" y="-16" type="curve" smooth="yes"/>
      <point x="98" y="-16"/>
      <point x="70" y="5"/>
      <point x="70" y="44" type="curve" smooth="yes"/>
      <point x="70" y="83"/>
      <point x="98" y="104"/>
      <point x="128" y="104" type="curve" smooth="yes"/>
      <point x="156" y="104"/>
      <point x="186" y="83"/>
    </contour>
  </outline>
</glyph>
<glyph name="colon" format="2">
  <advance width="256"/>
  <unicode hex="003A"/>
  <outline>
    <contour>
      <point x="186" y="44" type="curve" smooth="yes"/>
      <point x="186" y="5"/>
      <point x="156" y="-16"/>
      <point x="128" y="-16" type="curve" smooth="yes"/>
      <point x="98" y="-16"/>
      <point x="70" y="5"/>
      <point x="70" y="44" type="curve" smooth="yes"/>
      <point x="70" y="83"/>
      <point x="98" y="104"/>
      <point x="128" y="104" type="curve" smooth="yes"/>
      <point x="156" y="104"/>
      <point x="186" y="83"/>
    </contour>
    <contour>
      <point x="186" y="490" type="curve" smooth="yes"/>
      <point x="186" y="451"/>
      <point x="156" y="430"/>
      <point x="128" y="430" type="curve" smooth="yes"/>
      <point x="98" y="430"/>
      <point x="70" y="451"/>
      <point x="70" y="490" type="curve" smooth="yes"/>
      <point x="70" y="529"/>
      <point x="98" y="550"/>
      <point x="128" y="550" type="curve" smooth="yes"/>
      <point x="156" y="550"/>
      <point x="186" y="529"/>
    </contour>
  </outline>
</glyph>
<glyph name="at" format="2">
  <advance width="1117"/>
  <unicode hex="0040"/>
  <outline>
    <contour>
      <point x="734" y="152" type="line"/>
      <point x="734" y="152"/>
      <point x="723" y="-16"/>
      <point x="519" y="-16" type="curve" smooth="yes"/>
      <point x="447" y="-16"/>
      <point x="338" y="22"/>
      <point x="338" y="138" type="curve" smooth="yes"/>
      <point x="338" y="243"/>
      <point x="422" y="327"/>
      <point x="719" y="327" type="curve"/>
      <point x="742" y="259" type="line"/>
      <point x="507" y="259"/>
      <point x="418" y="232"/>
      <point x="418" y="137" type="curve" smooth="yes"/>
      <point x="418" y="84"/>
      <point x="457" y="49"/>
      <point x="530" y="49" type="curve" smooth="yes"/>
      <point x="614" y="49"/>
      <point x="698" y="89"/>
      <point x="698" y="240" type="curve"/>
    </contour>
    <contour>
      <point x="1047" y="272" type="curve" smooth="yes"/>
      <point x="1047" y="136"/>
      <point x="1018" y="-17"/>
      <point x="855" y="-17" type="curve" smooth="yes"/>
      <point x="683" y="-17"/>
      <point x="698" y="159"/>
      <point x="698" y="159" type="curve"/>
      <point x="698" y="367" type="line" smooth="yes"/>
      <point x="698" y="453"/>
      <point x="667" y="501"/>
      <point x="565" y="501" type="curve" smooth="yes"/>
      <point x="451" y="501"/>
      <point x="409" y="422"/>
      <point x="409" y="422" type="curve"/>
      <point x="352" y="463" type="line"/>
      <point x="352" y="463"/>
      <point x="409" y="566"/>
      <point x="566" y="566" type="curve" smooth="yes"/>
      <point x="705" y="566"/>
      <point x="778" y="494"/>
      <point x="778" y="371" type="curve" smooth="yes"/>
      <point x="778" y="371"/>
      <point x="778" y="135"/>
      <point x="778" y="135" type="curve"/>
      <point x="778" y="101"/>
      <point x="787" y="44"/>
      <point x="861" y="43" type="curve" smooth="yes"/>
      <point x="972" y="42"/>
      <point x="977" y="158"/>
      <point x="977" y="275" type="curve" smooth="yes"/>
      <point x="977" y="529"/>
      <point x="796" y="691"/>
      <point x="575" y="691" type="curve" smooth="yes"/>
      <point x="315" y="691"/>
      <point x="142" y="521"/>
      <point x="142" y="261" type="curve" smooth="yes"/>
      <point x="142" y="-6"/>
      <point x="315" y="-170"/>
      <point x="565" y="-170" type="curve" smooth="yes"/>
      <point x="733" y="-170"/>
      <point x="770" y="-116"/>
      <point x="770" y="-116" type="curve"/>
      <point x="810" y="-171" type="line"/>
      <point x="810" y="-171"/>
      <point x="752" y="-235"/>
      <point x="574" y="-235" type="curve" smooth="yes"/>
      <point x="269" y="-235"/>
      <point x="70" y="-43"/>
      <point x="70" y="261" type="curve" smooth="yes"/>
      <point x="70" y="557"/>
      <point x="269" y="756"/>
      <point x="575" y="756" type="curve" smooth="yes"/>
      <point x="839" y="756"/>
      <point x="1047" y="553"/>
    </contour>
  </outline>
</glyph>
<glyph name="B" format="2">
  <advance width="638"/>
  <unicode hex="0042"/>
  <outline>
    <contour>
      <point x="503" y="210" type="curve" smooth="yes"/>
      <point x="503" y="308"/>
      <point x="450" y="350"/>
      <point x="327" y="350" type="curve"/>
      <point x="289" y="400" type="line"/>
      <point x="330" y="400" type="line"/>
      <point x="460" y="400"/>
      <point x="583" y="363"/>
      <point x="583" y="210" type="curve" smooth="yes"/>
      <point x="583" y="48"/>
      <point x="460" y="0"/>
      <point x="330" y="0" type="curve"/>
      <point x="327" y="65" type="line"/>
      <point x="450" y="65"/>
      <point x="503" y="113"/>
    </contour>
    <contour>
      <point x="70" y="740" type="line"/>
      <point x="337" y="740" type="line"/>
      <point x="480" y="740"/>
      <point x="553" y="649"/>
      <point x="553" y="549" type="curve" smooth="yes"/>
      <point x="553" y="411"/>
      <point x="440" y="375"/>
      <point x="327" y="375" type="curve"/>
      <point x="327" y="350" type="line"/>
      <point x="150" y="350" type="line"/>
      <point x="150" y="65" type="line"/>
      <point x="327" y="65" type="line"/>
      <point x="330" y="0" type="line"/>
      <point x="70" y="0" type="line"/>
    </contour>
    <contour>
      <point x="150" y="675" type="line"/>
      <point x="150" y="415" type="line"/>
      <point x="307" y="415" type="line" smooth="yes"/>
      <point x="410" y="415"/>
      <point x="473" y="449"/>
      <point x="473" y="549" type="curve" smooth="yes"/>
      <point x="473" y="649"/>
      <point x="410" y="675"/>
      <point x="307" y="675" type="curve" smooth="yes"/>
    </contour>
  </outline>
</glyph>
<glyph name="D" format="2">
  <advance width="685"/>
  <unicode hex="0044"/>
  <outline>
    <contour>
      <point x="150" y="710" type="line"/>
      <point x="150" y="370" type="line"/>
      <point x="70" y="370" type="line"/>
      <point x="70" y="710" type="line"/>
    </contour>
    <contour>
      <point x="150" y="30" type="line"/>
      <point x="70" y="30" type="line"/>
      <point x="70" y="370" type="line"/>
      <point x="150" y="370" type="line"/>
    </contour>
    <contour>
      <point x="560" y="370" type="curve" smooth="yes"/>
      <point x="560" y="570"/>
      <point x="480" y="677"/>
      <point x="280" y="677" type="curve" smooth="yes"/>
      <point x="150" y="677"/>
      <point x="70" y="671"/>
      <point x="70" y="671" type="curve"/>
      <point x="70" y="738" type="line"/>
      <point x="70" y="738"/>
      <point x="140" y="742"/>
      <point x="285" y="742" type="curve" smooth="yes"/>
      <point x="430" y="742"/>
      <point x="640" y="684"/>
      <point x="640" y="370" type="curve" smooth="yes"/>
      <point x="640" y="56"/>
      <point x="448" y="-2"/>
      <point x="284" y="-2" type="curve" smooth="yes"/>
      <point x="140" y="-2"/>
      <point x="70" y="2"/>
      <point x="70" y="2" type="curve"/>
      <point x="70" y="69" type="line"/>
      <point x="70" y="69"/>
      <point x="150" y="63"/>
      <point x="280" y="63" type="curve" smooth="yes"/>
      <point x="490" y="63"/>
      <point x="560" y="170"/>
    </contour>
  </outline>
</glyph>
<glyph name="E" format="2">
  <advance width="590"/>
  <unicode hex="0045"/>
  <outline>
    <contour>
      <point x="70" y="393" type="line"/>
      <point x="490" y="393" type="line"/>
      <point x="490" y="328" type="line"/>
      <point x="70" y="328" type="line"/>
    </contour>
    <contour>
      <point x="70" y="720" type="line"/>
      <point x="507" y="720" type="line"/>
      <point x="507" y="655" type="line"/>
      <point x="150" y="655" type="line"/>
      <point x="150" y="65" type="line"/>
      <point x="520" y="65" type="line"/>
      <point x="520" y="0" type="line"/>
      <point x="70" y="0" type="line"/>
    </contour>
  </outline>
</glyph>
<glyph name="F" format="2">
  <advance width="554"/>
  <unicode hex="0046"/>
  <outline>
    <contour>
      <point x="70" y="405" type="line"/>
      <point x="484" y="405" type="line"/>
      <point x="484" y="340" type="line"/>
      <point x="70" y="340" type="line"/>
    </contour>
    <contour>
      <point x="70" y="740" type="line"/>
      <point x="514" y="740" type="line"/>
      <point x="514" y="675" type="line"/>
      <point x="150" y="675" type="line"/>
      <point x="150" y="0" type="line"/>
      <point x="70" y="0" type="line"/>
    </contour>
  </outline>
</glyph>
<glyph name="G" format="2">
  <advance width="765"/>
  <unicode hex="0047"/>
  <outline>
    <contour>
      <point x="400" y="686" type="curve" smooth="yes"/>
      <point x="535" y="686"/>
      <point x="585" y="602"/>
      <point x="585" y="602" type="curve"/>
      <point x="647" y="634" type="line"/>
      <point x="647" y="634"/>
      <point x="582" y="756"/>
      <point x="392" y="756" type="curve" smooth="yes"/>
      <point x="199" y="756"/>
      <point x="60" y="613"/>
      <point x="60" y="370" type="curve" smooth="yes"/>
      <point x="60" y="127"/>
      <point x="195" y="-16"/>
      <point x="397" y="-16" type="curve" smooth="yes"/>
      <point x="509" y="-16"/>
      <point x="695" y="38"/>
      <point x="695" y="305" type="curve"/>
      <point x="693" y="373" type="line"/>
      <point x="420" y="373" type="line"/>
      <point x="420" y="308" type="line"/>
      <point x="615" y="308" type="line"/>
      <point x="615" y="301" type="line"/>
      <point x="615" y="104"/>
      <point x="527" y="54"/>
      <point x="395" y="54" type="curve" smooth="yes"/>
      <point x="230" y="54"/>
      <point x="140" y="170"/>
      <point x="140" y="370" type="curve" smooth="yes"/>
      <point x="140" y="570"/>
      <point x="234" y="686"/>
    </contour>
  </outline>
</glyph>
<glyph name="H" format="2">
  <advance width="702"/>
  <unicode hex="0048"/>
  <outline>
    <contour>
      <point x="150" y="740" type="line"/>
      <point x="150" y="0" type="line"/>
      <point x="70" y="0" type="line"/>
      <point x="70" y="740" type="line"/>
    </contour>
    <contour>
      <point x="632" y="740" type="line"/>
      <point x="632" y="0" type="line"/>
      <point x="552" y="0" type="line"/>
      <point x="552" y="740" type="line"/>
    </contour>
    <contour>
      <point x="70" y="405" type="line"/>
      <point x="632" y="405" type="line"/>
      <point x="632" y="340" type="line"/>
      <point x="70" y="340" type="line"/>
    </contour>
  </outline>
</glyph>
<glyph name="J" format="2">
  <advance width="547"/>
  <unicode hex="004A"/>
  <outline>
    <contour>
      <point x="255" y="50" type="curve" smooth="yes"/>
      <point x="369" y="50"/>
      <point x="397" y="110"/>
      <point x="397" y="208" type="curve" smooth="yes"/>
      <point x="397" y="740" type="line"/>
      <point x="477" y="740" type="line"/>
      <point x="477" y="212" type="line" smooth="yes"/>
      <point x="477" y="66"/>
      <point x="412" y="-16"/>
      <point x="253" y="-16" type="curve" smooth="yes"/>
      <point x="57" y="-16"/>
      <point x="30" y="154"/>
      <point x="30" y="154" type="curve"/>
      <point x="93" y="170" type="line"/>
      <point x="93" y="170"/>
      <point x="117" y="50"/>
    </contour>
  </outline>
</glyph>
<glyph name="P" format="2">
  <advance width="550"/>
  <unicode hex="0050"/>
  <outline>
    <contour>
      <point x="70" y="720" type="line"/>
      <point x="270" y="720" type="line" smooth="yes"/>
      <point x="423" y="720"/>
      <point x="498" y="636"/>
      <point x="498" y="519" type="curve" smooth="yes"/>
      <point x="498" y="407"/>
      <point x="423" y="320"/>
      <point x="270" y="320" type="curve" smooth="yes"/>
      <point x="150" y="320" type="line"/>
      <point x="150" y="0" type="line"/>
      <point x="70" y="0" type="line"/>
    </contour>
    <contour>
      <point x="150" y="655" type="move"/>
      <point x="150" y="655" type="line"/>
    </contour>
    <contour>
      <point x="150" y="655" type="line"/>
      <point x="150" y="385" type="line"/>
      <point x="273" y="385" type="line"/>
      <point x="376" y="385"/>
      <point x="418" y="445"/>
      <point x="418" y="519" type="curve" smooth="yes"/>
      <point x="418" y="597"/>
      <point x="376" y="655"/>
      <point x="273" y="655" type="curve"/>
    </contour>
  </outline>
</glyph>
<glyph name="S" format="2">
  <advance width="665"/>
  <unicode hex="0053"/>
  <outline>
    <contour>
      <point x="587" y="653" type="curve"/>
      <point x="539" y="612" type="line"/>
      <point x="539" y="612"/>
      <point x="486" y="691"/>
      <point x="341" y="691" type="curve" smooth="yes"/>
      <point x="218" y="691"/>
      <point x="163" y="630"/>
      <point x="163" y="562" type="curve" smooth="yes"/>
      <point x="163" y="360"/>
      <point x="615" y="464"/>
      <point x="615" y="197" type="curve" smooth="yes"/>
      <point x="615" y="68"/>
      <point x="522" y="-16"/>
      <point x="352" y="-16" type="curve" smooth="yes"/>
      <point x="135" y="-16"/>
      <point x="60" y="117"/>
      <point x="60" y="117" type="curve"/>
      <point x="117" y="157" type="line"/>
      <point x="117" y="157"/>
      <point x="192" y="49"/>
      <point x="351" y="49" type="curve" smooth="yes"/>
      <point x="461" y="49"/>
      <point x="535" y="95"/>
      <point x="535" y="195" type="curve" smooth="yes"/>
      <point x="535" y="385"/>
      <point x="83" y="292"/>
      <point x="83" y="554" type="curve" smooth="yes"/>
      <point x="83" y="667"/>
      <point x="174" y="756"/>
      <point x="338" y="756" type="curve" smooth="yes"/>
      <point x="517" y="756"/>
      <point x="587" y="653"/>
    </contour>
  </outline>
</glyph>
<glyph name="T" format="2">
  <advance width="652"/>
  <unicode hex="0054"/>
  <outline>
    <contour>
      <point x="366" y="740" type="line"/>
      <point x="366" y="0" type="line"/>
      <point x="286" y="0" type="line"/>
      <point x="286" y="740" type="line"/>
    </contour>
    <contour>
      <point x="55" y="740" type="line"/>
      <point x="597" y="740" type="line"/>
      <point x="597" y="675" type="line"/>
      <point x="55" y="675" type="line"/>
    </contour>
  </outline>
</glyph>
<glyph name="bracketleft" format="2">
  <advance width="343"/>
  <unicode hex="005B"/>
  <outline>
    <contour>
      <point x="60" y="-129" type="line"/>
      <point x="140" y="-129" type="line"/>
      <point x="140" y="720" type="line"/>
      <point x="60" y="720" type="line"/>
    </contour>
    <contour>
      <point x="101" y="-129" type="line"/>
      <point x="283" y="-129" type="line"/>
      <point x="283" y="-64" type="line"/>
      <point x="101" y="-64" type="line"/>
    </contour>
    <contour>
      <point x="140" y="655" type="move"/>
    </contour>
    <contour>
      <point x="101" y="655" type="line"/>
      <point x="283" y="655" type="line"/>
      <point x="283" y="720" type="line"/>
      <point x="101" y="720" type="line"/>
    </contour>
  </outline>
</glyph>
<glyph name="bracketright" format="2">
  <advance width="343"/>
  <unicode hex="005D"/>
  <outline>
    <contour>
      <point x="283" y="-129" type="line"/>
      <point x="203" y="-129" type="line"/>
      <point x="203" y="720" type="line"/>
      <point x="283" y="720" type="line"/>
    </contour>
    <contour>
      <point x="242" y="-129" type="line"/>
      <point x="60" y="-129" type="line"/>
      <point x="60" y="-64" type="line"/>
      <point x="242" y="-64" type="line"/>
    </contour>
    <contour>
      <point x="203" y="655" type="move"/>
    </contour>
    <contour>
      <point x="242" y="655" type="line"/>
      <point x="60" y="655" type="line"/>
      <point x="60" y="720" type="line"/>
      <point x="242" y="720" type="line"/>
    </contour>
  </outline>
</glyph>
<glyph name="a" format="2">
  <advance width="575"/>
  <unicode hex="0061"/>
  <outline>
    <contour>
      <point x="298" y="566" type="curve" smooth="yes"/>
      <point x="437" y="566"/>
      <point x="505" y="494"/>
      <point x="505" y="364" type="curve" smooth="yes"/>
      <point x="505" y="0" type="line"/>
      <point x="450" y="0" type="line"/>
      <point x="425" y="115" type="line"/>
      <point x="425" y="367" type="line" smooth="yes"/>
      <point x="425" y="453"/>
      <point x="399" y="501"/>
      <point x="296" y="501" type="curve" smooth="yes"/>
      <point x="178" y="501"/>
      <point x="150" y="417"/>
      <point x="150" y="417" type="curve"/>
      <point x="89" y="463" type="line"/>
      <point x="89" y="463"/>
      <point x="141" y="566"/>
    </contour>
    <contour>
      <point x="461" y="152" type="line"/>
      <point x="461" y="152"/>
      <point x="450" y="-16"/>
      <point x="246" y="-16" type="curve" smooth="yes"/>
      <point x="174" y="-16"/>
      <point x="65" y="22"/>
      <point x="65" y="138" type="curve" smooth="yes"/>
      <point x="65" y="243"/>
      <point x="149" y="327"/>
      <point x="446.263" y="326.613" type="curve"/>
      <point x="468.839" y="258.812" type="line"/>
      <point x="234" y="259"/>
      <point x="145" y="232"/>
      <point x="145" y="137" type="curve" smooth="yes"/>
      <point x="145" y="84"/>
      <point x="184" y="49"/>
      <point x="257" y="49" type="curve" smooth="yes"/>
      <point x="341" y="49"/>
      <point x="425" y="89"/>
      <point x="425" y="240" type="curve"/>
    </contour>
  </outline>
</glyph>
<glyph name="b" format="2">
  <advance width="612"/>
  <unicode hex="0062"/>
  <outline>
    <contour>
      <point x="151" y="110" type="line"/>
      <point x="136" y="0" type="line"/>
      <point x="70" y="0" type="line"/>
      <point x="70" y="775" type="line"/>
      <point x="150" y="775" type="line"/>
      <point x="151" y="445" type="line"/>
      <point x="136" y="273" type="line"/>
    </contour>
    <contour>
      <point x="562" y="273" type="curve" smooth="yes"/>
      <point x="562" y="44"/>
      <point x="427" y="-16"/>
      <point x="323" y="-16" type="curve" smooth="yes"/>
      <point x="192" y="-16"/>
      <point x="98" y="74"/>
      <point x="98" y="273" type="curve" smooth="yes"/>
      <point x="98" y="472"/>
      <point x="192" y="566"/>
      <point x="330" y="566" type="curve" smooth="yes"/>
      <point x="427" y="566"/>
      <point x="562" y="516"/>
    </contour>
    <contour>
      <point x="482" y="273" type="curve" smooth="yes"/>
      <point x="482" y="404"/>
      <point x="439" y="501"/>
      <point x="320" y="501" type="curve" smooth="yes"/>
      <point x="203" y="501"/>
      <point x="148" y="417"/>
      <point x="148" y="273" type="curve" smooth="yes"/>
      <point x="148" y="129"/>
      <point x="203" y="49"/>
      <point x="320" y="49" type="curve" smooth="yes"/>
      <point x="435" y="49"/>
      <point x="482" y="143"/>
    </contour>
  </outline>
</glyph>
<glyph name="c" format="2">
  <advance width="522"/>
  <unicode hex="0063"/>
  <outline>
    <contour>
      <point x="452" y="84" type="curve"/>
      <point x="477" y="17" type="line"/>
      <point x="444" y="-1"/>
      <point x="379" y="-15"/>
      <point x="317" y="-15" type="curve" smooth="yes"/>
      <point x="182" y="-15"/>
      <point x="50" y="65"/>
      <point x="50" y="274" type="curve" smooth="yes"/>
      <point x="50" y="483"/>
      <point x="182.27099609375" y="560.7739868164062"/>
      <point x="322" y="561" type="curve" smooth="yes"/>
      <point x="379.47601318359375" y="560.7739868164062"/>
      <point x="444.0639953613281" y="546.5570068359375"/>
      <point x="476.9729919433594" y="529.1680297851562" type="curve"/>
      <point x="451.9849853515625" y="461.7099914550781" type="line"/>
      <point x="428.3580017089844" y="476.7179870605469"/>
      <point x="376" y="496"/>
      <point x="326" y="496" type="curve" smooth="yes"/>
      <point x="206" y="496"/>
      <point x="130" y="430"/>
      <point x="130" y="274" type="curve"/>
      <point x="130" y="117"/>
      <point x="206" y="50"/>
      <point x="326" y="50" type="curve" smooth="yes"/>
      <point x="376" y="50"/>
      <point x="428" y="69"/>
    </contour>
  </outline>
</glyph>
<glyph name="e" format="2">
  <advance width="570"/>
  <unicode hex="0065"/>
  <outline>
    <contour>
      <point x="109" y="327" type="line"/>
      <point x="495" y="327" type="line"/>
      <point x="495" y="262" type="line"/>
      <point x="109" y="262" type="line"/>
    </contour>
    <contour>
      <point x="445" y="349" type="line"/>
      <point x="445" y="421"/>
      <point x="400" y="500"/>
      <point x="301" y="500" type="curve"/>
      <point x="189" y="500"/>
      <point x="131" y="425"/>
      <point x="131" y="308" type="curve"/>
      <point x="130" y="252" type="line"/>
      <point x="130" y="138"/>
      <point x="186" y="49"/>
      <point x="310" y="49" type="curve" smooth="yes"/>
      <point x="426" y="49"/>
      <point x="464" y="127"/>
      <point x="464" y="127" type="curve" smooth="yes"/>
      <point x="516" y="77" type="line"/>
      <point x="516" y="77"/>
      <point x="467" y="-16"/>
      <point x="310" y="-16" type="curve" smooth="yes"/>
      <point x="127" y="-16"/>
      <point x="50" y="115.29958362979824"/>
      <point x="50" y="270" type="curve"/>
      <point x="50" y="454"/>
      <point x="141" y="565"/>
      <point x="298" y="565" type="curve" smooth="yes"/>
      <point x="434" y="565"/>
      <point x="525" y="461"/>
      <point x="525" y="315" type="curve" smooth="yes"/>
      <point x="525" y="279"/>
      <point x="522" y="262"/>
      <point x="522" y="262" type="curve"/>
      <point x="444" y="262" type="line"/>
    </contour>
  </outline>
</glyph>
<glyph name="f" format="2">
  <advance width="422"/>
  <unicode hex="0066"/>
  <outline>
    <contour>
      <point x="55" y="550" type="line"/>
      <point x="373" y="550" type="line"/>
      <point x="373" y="485" type="line"/>
      <point x="55" y="485" type="line"/>
    </contour>
    <contour>
      <point x="236" y="0" type="line"/>
      <point x="156" y="0" type="line"/>
      <point x="156" y="623" type="line"/>
      <point x="156" y="736"/>
      <point x="210" y="791"/>
      <point x="308" y="791" type="curve" smooth="yes"/>
      <point x="374" y="791"/>
      <point x="402" y="766"/>
      <point x="402" y="766" type="curve"/>
      <point x="387" y="704" type="line"/>
      <point x="387" y="704"/>
      <point x="365" y="726"/>
      <point x="317" y="726" type="curve" smooth="yes"/>
      <point x="260" y="726"/>
      <point x="236" y="697"/>
      <point x="236" y="632" type="curve"/>
    </contour>
  </outline>
</glyph>
<glyph name="g" format="2">
  <advance width="635"/>
  <unicode hex="0067"/>
  <outline>
    <contour>
      <point x="537" y="381" type="curve" smooth="yes"/>
      <point x="537" y="248"/>
      <point x="429" y="193"/>
      <point x="323" y="193" type="curve" smooth="yes"/>
      <point x="222" y="193"/>
      <point x="99" y="246"/>
      <point x="99" y="376" type="curve" smooth="yes"/>
      <point x="99" y="505"/>
      <point x="203" y="568"/>
      <point x="320" y="568" type="curve" smooth="yes"/>
      <point x="433" y="568"/>
      <point x="537" y="512"/>
    </contour>
    <contour>
      <point x="179" y="380" type="curve" smooth="yes"/>
      <point x="179" y="303"/>
      <point x="237" y="258"/>
      <point x="324" y="258" type="curve" smooth="yes"/>
      <point x="408" y="258"/>
      <point x="457" y="303"/>
      <point x="457" y="381" type="curve" smooth="yes"/>
      <point x="457" y="459"/>
      <point x="404" y="503"/>
      <point x="320" y="503" type="curve" smooth="yes"/>
      <point x="241" y="503"/>
      <point x="179" y="461"/>
    </contour>
    <contour>
      <point x="102" y="155" type="curve" smooth="yes"/>
      <point x="102" y="212"/>
      <point x="152" y="260"/>
      <point x="237" y="260" type="curve"/>
      <point x="237" y="210" type="line"/>
      <point x="205" y="210"/>
      <point x="178" y="192"/>
      <point x="178" y="163" type="curve" smooth="yes"/>
      <point x="178" y="44"/>
      <point x="595" y="168"/>
      <point x="595" y="-68" type="curve" smooth="yes"/>
      <point x="595" y="-174"/>
      <point x="492" y="-241"/>
      <point x="317" y="-241" type="curve" smooth="yes"/>
      <point x="139" y="-241"/>
      <point x="45" y="-173"/>
      <point x="45" y="-64" type="curve" smooth="yes"/>
      <point x="45" y="15"/>
      <point x="97" y="89"/>
      <point x="232" y="89" type="curve"/>
      <point x="232" y="40" type="line"/>
      <point x="180" y="40"/>
      <point x="125" y="9"/>
      <point x="125" y="-58" type="curve" smooth="yes"/>
      <point x="125" y="-138"/>
      <point x="195" y="-172"/>
      <point x="316" y="-172" type="curve" smooth="yes"/>
      <point x="435" y="-172"/>
      <point x="515" y="-139"/>
      <point x="515" y="-65" type="curve" smooth="yes"/>
      <point x="515" y="88"/>
      <point x="102" y="-42"/>
    </contour>
    <contour>
      <point x="437" y="495" type="line"/>
      <point x="437" y="495"/>
      <point x="474" y="582"/>
      <point x="582" y="586" type="curve"/>
      <point x="600" y="507" type="line"/>
      <point x="502" y="515"/>
      <point x="460" y="450"/>
      <point x="460" y="450" type="curve"/>
    </contour>
  </outline>
</glyph>
<glyph name="h" format="2">
  <advance width="594"/>
  <unicode hex="0068"/>
  <outline>
    <contour>
      <point x="155" y="775" type="line"/>
      <point x="155" y="0" type="line"/>
      <point x="75" y="0" type="line"/>
      <point x="75" y="775" type="line"/>
    </contour>
    <contour>
      <point x="325" y="500" type="curve" smooth="yes"/>
      <point x="224" y="500"/>
      <point x="155" y="423"/>
      <point x="155" y="320" type="curve"/>
      <point x="117" y="376" type="line"/>
      <point x="117" y="376"/>
      <point x="146" y="565"/>
      <point x="339" y="565" type="curve" smooth="yes"/>
      <point x="466" y="565"/>
      <point x="539" y="494"/>
      <point x="539" y="358" type="curve" smooth="yes"/>
      <point x="539" y="0" type="line"/>
      <point x="459" y="0" type="line"/>
      <point x="459" y="362" type="line" smooth="yes"/>
      <point x="459" y="461"/>
      <point x="412" y="500"/>
    </contour>
  </outline>
</glyph>
<glyph name="i" format="2">
  <advance width="256"/>
  <unicode hex="0069"/>
  <outline>
    <contour>
      <point x="186" y="731" type="curve" smooth="yes"/>
      <point x="186" y="692"/>
      <point x="156" y="671"/>
      <point x="128" y="671" type="curve" smooth="yes"/>
      <point x="98" y="671"/>
      <point x="70" y="692"/>
      <point x="70" y="731" type="curve" smooth="yes"/>
      <point x="70" y="770"/>
      <point x="98" y="791"/>
      <point x="128" y="791" type="curve" smooth="yes"/>
      <point x="156" y="791"/>
      <point x="186" y="770"/>
    </contour>
    <contour>
      <point x="88" y="550" type="line"/>
      <point x="88" y="3" type="line"/>
      <point x="128" y="3" type="line"/>
      <point x="168" y="3" type="line"/>
      <point x="168" y="550" type="line"/>
    </contour>
  </outline>
</glyph>
<glyph name="j" format="2">
  <advance width="251"/>
  <unicode hex="006A"/>
  <outline>
    <contour>
      <point x="-18" y="-142" type="curve"/>
      <point x="-35" y="-203" type="line"/>
      <point x="-35" y="-203"/>
      <point x="-12" y="-225"/>
      <point x="46" y="-225" type="curve" smooth="yes"/>
      <point x="112" y="-225"/>
      <point x="163" y="-191"/>
      <point x="163" y="-109" type="curve" smooth="yes"/>
      <point x="163" y="6" type="line"/>
      <point x="83" y="6" type="line"/>
      <point x="83" y="-94" type="line" smooth="yes"/>
      <point x="83" y="-149"/>
      <point x="61" y="-155"/>
      <point x="34" y="-155" type="curve" smooth="yes"/>
      <point x="6" y="-155"/>
      <point x="-18" y="-142"/>
    </contour>
    <contour>
      <point x="83" y="550" type="line"/>
      <point x="83" y="0" type="line"/>
      <point x="123" y="0" type="line"/>
      <point x="163" y="0" type="line"/>
      <point x="163" y="550" type="line"/>
    </contour>
    <contour>
      <point x="181" y="731" type="curve" smooth="yes"/>
      <point x="181" y="692"/>
      <point x="151" y="671"/>
      <point x="123" y="671" type="curve" smooth="yes"/>
      <point x="93" y="671"/>
      <point x="65" y="692"/>
      <point x="65" y="731" type="curve" smooth="yes"/>
      <point x="65" y="770"/>
      <point x="93" y="791"/>
      <point x="123" y="791" type="curve" smooth="yes"/>
      <point x="151" y="791"/>
      <point x="181" y="770"/>
    </contour>
  </outline>
</glyph>
<glyph name="k" format="2">
  <advance width="569"/>
  <unicode hex="006B"/>
  <outline>
    <contour>
      <point x="155" y="0" type="line"/>
      <point x="75" y="0" type="line"/>
      <point x="75" y="775" type="line"/>
      <point x="155" y="775" type="line"/>
    </contour>
    <contour>
      <point x="155" y="291" type="line"/>
      <point x="414" y="550" type="line"/>
      <point x="519" y="550" type="line"/>
      <point x="246" y="276" type="line"/>
      <point x="155" y="193" type="line"/>
      <point x="106.2617" y="190.121" type="line"/>
    </contour>
    <contour>
      <point x="534" y="0" type="line"/>
      <point x="431" y="0" type="line"/>
      <point x="198.862" y="268.136" type="line"/>
      <point x="251" y="317" type="line"/>
    </contour>
  </outline>
</glyph>
<glyph name="l" format="2">
  <advance width="288"/>
  <unicode hex="006C"/>
  <outline>
    <contour>
      <point x="155" y="775" type="line"/>
      <point x="155" y="215" type="line"/>
      <point x="75" y="215" type="line"/>
      <point x="75" y="775" type="line"/>
    </contour>
    <contour>
      <point x="256" y="65" type="curve"/>
      <point x="273" y="4" type="line"/>
      <point x="273" y="4"/>
      <point x="250" y="-18"/>
      <point x="200" y="-18" type="curve" smooth="yes"/>
      <point x="126" y="-18"/>
      <point x="75" y="16"/>
      <point x="75" y="113" type="curve" smooth="yes"/>
      <point x="75" y="223" type="line"/>
      <point x="155" y="223" type="line"/>
      <point x="155" y="113" type="line" smooth="yes"/>
      <point x="155" y="58"/>
      <point x="177" y="52"/>
      <point x="211" y="52" type="curve" smooth="yes"/>
      <point x="232" y="52"/>
      <point x="256" y="65"/>
    </contour>
  </outline>
</glyph>
<glyph name="m" format="2">
  <advance width="917"/>
  <unicode hex="006D"/>
  <outline>
    <contour>
      <point x="135" y="550" type="line"/>
      <point x="150" y="450" type="line"/>
      <point x="150" y="0" type="line"/>
      <point x="70" y="0" type="line"/>
      <point x="70" y="550" type="line"/>
    </contour>
    <contour>
      <point x="307" y="500" type="curve" smooth="yes"/>
      <point x="206" y="500"/>
      <point x="150" y="437"/>
      <point x="150" y="320" type="curve"/>
      <point x="112" y="376" type="line"/>
      <point x="112" y="376"/>
      <point x="128" y="565"/>
      <point x="311" y="565" type="curve" smooth="yes"/>
      <point x="455" y="565"/>
      <point x="506" y="492"/>
      <point x="506" y="361" type="curve" smooth="yes"/>
      <point x="506" y="0" type="line"/>
      <point x="426" y="0" type="line"/>
      <point x="426" y="362" type="line" smooth="yes"/>
      <point x="426" y="457"/>
      <point x="394" y="500"/>
    </contour>
    <contour>
      <point x="663" y="500" type="curve" smooth="yes"/>
      <point x="562" y="500"/>
      <point x="506" y="437"/>
      <point x="506" y="320" type="curve"/>
      <point x="458" y="376" type="line"/>
      <point x="458" y="376"/>
      <point x="475" y="565"/>
      <point x="667" y="565" type="curve" smooth="yes"/>
      <point x="811" y="565"/>
      <point x="862" y="492"/>
      <point x="862" y="361" type="curve" smooth="yes"/>
      <point x="862" y="0" type="line"/>
      <point x="782" y="0" type="line"/>
      <point x="782" y="362" type="line" smooth="yes"/>
      <point x="782" y="457"/>
      <point x="750" y="500"/>
    </contour>
  </outline>
</glyph>
<glyph name="o" format="2">
  <advance width="600"/>
  <unicode hex="006F"/>
  <outline>
    <contour>
      <point x="300" y="-16" type="curve"/>
      <point x="196" y="-14"/>
      <point x="50" y="39"/>
      <point x="50" y="275" type="curve" smooth="yes"/>
      <point x="50" y="511"/>
      <point x="196" y="566"/>
      <point x="300" y="566" type="curve" smooth="yes"/>
      <point x="404" y="566"/>
      <point x="550" y="512"/>
      <point x="550" y="275" type="curve" smooth="yes"/>
      <point x="550" y="39"/>
      <point x="404" y="-14"/>
    </contour>
    <contour>
      <point x="473" y="275" type="curve" smooth="yes"/>
      <point x="473" y="416"/>
      <point x="415" y="501"/>
      <point x="300" y="501" type="curve" smooth="yes"/>
      <point x="185" y="501"/>
      <point x="127" y="416"/>
      <point x="127" y="275" type="curve" smooth="yes"/>
      <point x="127" y="135"/>
      <point x="185" y="49"/>
      <point x="300" y="49" type="curve" smooth="yes"/>
      <point x="415" y="49"/>
      <point x="473" y="135"/>
    </contour>
  </outline>
</glyph>
<glyph name="p" format="2">
  <advance width="622"/>
  <unicode hex="0070"/>
  <outline>
    <contour>
      <point x="151" y="440" type="line"/>
      <point x="136" y="550" type="line"/>
      <point x="70" y="550" type="line"/>
      <point x="70" y="-225" type="line"/>
      <point x="150" y="-225" type="line"/>
      <point x="151" y="105" type="line"/>
      <point x="136" y="277" type="line"/>
    </contour>
    <contour>
      <point x="562" y="277" type="curve" smooth="yes"/>
      <point x="562" y="506"/>
      <point x="427" y="566"/>
      <point x="323" y="566" type="curve" smooth="yes"/>
      <point x="192" y="566"/>
      <point x="98" y="476"/>
      <point x="98" y="277" type="curve" smooth="yes"/>
      <point x="98" y="78"/>
      <point x="192" y="-16"/>
      <point x="330" y="-16" type="curve" smooth="yes"/>
      <point x="427" y="-16"/>
      <point x="562" y="34"/>
    </contour>
    <contour>
      <point x="482" y="277" type="curve" smooth="yes"/>
      <point x="482" y="146"/>
      <point x="439" y="49"/>
      <point x="315" y="49" type="curve" smooth="yes"/>
      <point x="203" y="49"/>
      <point x="148" y="133"/>
      <point x="148" y="277" type="curve" smooth="yes"/>
      <point x="148" y="421"/>
      <point x="203" y="501"/>
      <point x="315" y="501" type="curve" smooth="yes"/>
      <point x="435" y="501"/>
      <point x="482" y="407"/>
    </contour>
  </outline>
</glyph>
<glyph name="q" format="2">
  <advance width="612"/>
  <unicode hex="0071"/>
  <outline>
    <contour>
      <point x="462" y="440" type="line"/>
      <point x="476" y="550" type="line"/>
      <point x="542" y="550" type="line"/>
      <point x="542" y="-225" type="line"/>
      <point x="462" y="-225" type="line"/>
      <point x="462" y="105" type="line"/>
      <point x="476" y="277" type="line"/>
    </contour>
    <contour>
      <point x="50" y="276.871" type="curve" smooth="yes"/>
      <point x="50" y="506"/>
      <point x="185" y="566"/>
      <point x="289" y="566" type="curve" smooth="yes"/>
      <point x="420" y="566"/>
      <point x="514" y="476"/>
      <point x="514" y="277" type="curve" smooth="yes"/>
      <point x="514" y="78"/>
      <point x="420" y="-16"/>
      <point x="282" y="-16" type="curve" smooth="yes"/>
      <point x="185" y="-16"/>
      <point x="50" y="54"/>
    </contour>
    <contour>
      <point x="130" y="277" type="curve" smooth="yes"/>
      <point x="130" y="146"/>
      <point x="173" y="49"/>
      <point x="297" y="49" type="curve" smooth="yes"/>
      <point x="409" y="49"/>
      <point x="464" y="133"/>
      <point x="464" y="277" type="curve" smooth="yes"/>
      <point x="464" y="421"/>
      <point x="409" y="501"/>
      <point x="297" y="501" type="curve" smooth="yes"/>
      <point x="177" y="501"/>
      <point x="130" y="407"/>
    </contour>
  </outline>
</glyph>
<glyph name="r" format="2">
  <advance width="465"/>
  <unicode hex="0072"/>
  <outline>
    <contour>
      <point x="150" y="434" type="line"/>
      <point x="150" y="0" type="line"/>
      <point x="70" y="0" type="line"/>
      <point x="70" y="549" type="line"/>
      <point x="135" y="549" type="line"/>
    </contour>
    <contour>
      <point x="323" y="565" type="curve" smooth="yes"/>
      <point x="400" y="564"/>
      <point x="430" y="533"/>
      <point x="430" y="533" type="curve"/>
      <point x="404" y="472" type="line"/>
      <point x="404" y="472"/>
      <point x="383" y="500"/>
      <point x="310" y="500" type="curve" smooth="yes"/>
      <point x="236" y="500"/>
      <point x="150" y="431"/>
      <point x="150" y="310" type="curve"/>
      <point x="111" y="330" type="line"/>
      <point x="111" y="419"/>
      <point x="179" y="567"/>
    </contour>
  </outline>
</glyph>
<glyph name="s" format="2">
  <advance width="536"/>
  <unicode hex="0073"/>
  <outline>
    <contour>
      <point x="474" y="488" type="curve"/>
      <point x="420" y="443" type="line"/>
      <point x="420" y="443"/>
      <point x="383" y="501"/>
      <point x="279" y="501" type="curve" smooth="yes"/>
      <point x="184" y="501"/>
      <point x="154" y="458"/>
      <point x="154" y="417" type="curve" smooth="yes"/>
      <point x="154" y="273"/>
      <point x="486" y="362"/>
      <point x="486" y="145" type="curve" smooth="yes"/>
      <point x="486" y="47"/>
      <point x="417" y="-16"/>
      <point x="277" y="-16" type="curve" smooth="yes"/>
      <point x="106" y="-16"/>
      <point x="67" y="74"/>
      <point x="67" y="74" type="curve"/>
      <point x="123" y="116" type="line"/>
      <point x="123" y="116"/>
      <point x="151" y="49"/>
      <point x="278" y="49" type="curve" smooth="yes"/>
      <point x="357" y="49"/>
      <point x="406" y="75"/>
      <point x="406" y="140" type="curve" smooth="yes"/>
      <point x="406" y="276"/>
      <point x="74" y="206"/>
      <point x="74" y="416" type="curve" smooth="yes"/>
      <point x="74" y="499"/>
      <point x="150" y="566"/>
      <point x="277" y="566" type="curve" smooth="yes"/>
      <point x="425" y="566"/>
      <point x="474" y="488"/>
    </contour>
  </outline>
</glyph>
<glyph name="u" format="2">
  <advance width="604"/>
  <unicode hex="0075"/>
  <outline>
    <contour>
      <point x="469" y="0" type="line"/>
      <point x="454" y="100" type="line"/>
      <point x="454" y="550" type="line"/>
      <point x="534" y="550" type="line"/>
      <point x="534" y="0" type="line"/>
    </contour>
    <contour>
      <point x="284" y="50" type="curve" smooth="yes"/>
      <point x="385" y="50"/>
      <point x="454" y="127"/>
      <point x="454" y="230" type="curve"/>
      <point x="492" y="174" type="line"/>
      <point x="492" y="174"/>
      <point x="463" y="-15"/>
      <point x="274" y="-15" type="curve" smooth="yes"/>
      <point x="143" y="-15"/>
      <point x="70" y="48"/>
      <point x="70" y="206" type="curve" smooth="yes"/>
      <point x="70" y="550" type="line"/>
      <point x="150" y="550" type="line"/>
      <point x="150" y="188" type="line" smooth="yes"/>
      <point x="150" y="89"/>
      <point x="197" y="50"/>
    </contour>
  </outline>
</glyph>
<glyph name="v" format="2">
  <advance width="569"/>
  <unicode hex="0076"/>
  <outline>
    <contour>
      <point x="266" y="0" type="line"/>
      <point x="35" y="549" type="line"/>
      <point x="117" y="549" type="line"/>
      <point x="300" y="98" type="line"/>
      <point x="477" y="550" type="line"/>
      <point x="564" y="550" type="line"/>
      <point x="336" y="0" type="line"/>
    </contour>
  </outline>
</glyph>
<glyph name="w" format="2">
  <advance width="860"/>
  <unicode hex="0077"/>
  <outline>
    <contour>
      <point x="223" y="0" type="line"/>
      <point x="30" y="550" type="line"/>
      <point x="115" y="550" type="line"/>
      <point x="250" y="125" type="line"/>
      <point x="396" y="540" type="line"/>
      <point x="461" y="540" type="line"/>
      <point x="612" y="125" type="line"/>
      <point x="745" y="550" type="line"/>
      <point x="830" y="550" type="line"/>
      <point x="643" y="0" type="line"/>
      <point x="585" y="0" type="line"/>
      <point x="429" y="446" type="line"/>
      <point x="281" y="0" type="line"/>
    </contour>
  </outline>
</glyph>
<glyph name="x" format="2">
  <advance width="541"/>
  <unicode hex="0078"/>
  <outline>
    <contour>
      <point x="266" y="320" type="line"/>
      <point x="119" y="550" type="line"/>
      <point x="35" y="550" type="line"/>
      <point x="221" y="263" type="line"/>
      <point x="36" y="0" type="line"/>
      <point x="122" y="0" type="line"/>
      <point x="270" y="219" type="line"/>
      <point x="420" y="0" type="line"/>
      <point x="506" y="0" type="line"/>
      <point x="315" y="271" type="line"/>
      <point x="492" y="550" type="line"/>
      <point x="409" y="550" type="line"/>
    </contour>
  </outline>
</glyph>
<glyph name="y" format="2">
  <advance width="596"/>
  <unicode hex="0079"/>
  <outline>
    <contour>
      <point x="167" y="-203" type="line"/>
      <point x="257" y="20" type="line"/>
      <point x="35" y="550" type="line"/>
      <point x="118" y="550" type="line"/>
      <point x="295" y="111" type="line"/>
      <point x="473" y="550" type="line"/>
      <point x="561" y="550" type="line"/>
      <point x="334" y="24" type="line"/>
      <point x="248" y="-203" type="line"/>
    </contour>
  </outline>
</glyph>
<glyph name="z" format="2">
  <advance width="480"/>
  <unicode hex="007A"/>
  <outline>
    <contour>
      <point x="45" y="550" type="line"/>
      <point x="45" y="485" type="line"/>
      <point x="341" y="485" type="line"/>
      <point x="35" y="55" type="line"/>
      <point x="35" y="0" type="line"/>
      <point x="445" y="0" type="line"/>
      <point x="445" y="65" type="line"/>
      <point x="132" y="65" type="line"/>
      <point x="438" y="495" type="line"/>
      <point x="439" y="550" type="line"/>
    </contour>
  </outline>
</glyph>
<glyph name="braceleft" format="2">
  <advance width="382.4004"/>
  <unicode hex="007B"/>
  <outline>
    <contour>
      <point x="282.4004" y="695.406" type="line"/>
      <point x="223.99439999999998" y="718.6"/>
      <point x="176.35139999999998" y="708.897"/>
      <point x="176.35139999999998" y="658.2" type="curve" smooth="yes"/>
      <point x="176.35139999999998" y="533.935"/>
      <point x="303.9634" y="319"/>
      <point x="145.2394" y="319" type="curve" smooth="yes"/>
      <point x="60" y="319" type="line"/>
      <point x="60" y="353.24" type="line"/>
      <point x="97.5625" y="353.24" type="line" smooth="yes"/>
      <point x="229.2104" y="353.24"/>
      <point x="95.9629" y="520.669"/>
      <point x="95.9629" y="658.2" type="curve" smooth="yes"/>
      <point x="95.9629" y="750.613"/>
      <point x="163.71339999999998" y="792.015"/>
      <point x="282.4004" y="767.005" type="curve"/>
    </contour>
    <contour>
      <point x="282.4004" y="-57.4062" type="curve"/>
      <point x="282.4004" y="-129.005" type="line"/>
      <point x="163.71339999999998" y="-154.015"/>
      <point x="95.9629" y="-112.613"/>
      <point x="95.9629" y="-20.2002" type="curve" smooth="yes"/>
      <point x="95.9629" y="117.331"/>
      <point x="229.2104" y="284.76"/>
      <point x="97.5625" y="284.76" type="curve" smooth="yes"/>
      <point x="60" y="284.76" type="line"/>
      <point x="60" y="319" type="line"/>
      <point x="145.2394" y="319" type="line" smooth="yes"/>
      <point x="303.9634" y="319"/>
      <point x="176.35139999999998" y="104.065"/>
      <point x="176.35139999999998" y="-20.2002" type="curve" smooth="yes"/>
      <point x="176.35139999999998" y="-70.8975"/>
      <point x="223.99439999999998" y="-80.5996"/>
    </contour>
  </outline>
</glyph>
<glyph name="braceright" format="2">
  <advance width="382.4"/>
  <unicode hex="007D"/>
  <outline>
    <contour>
      <point x="100" y="695.406" type="curve"/>
      <point x="100" y="767.005" type="line"/>
      <point x="218.687" y="792.015"/>
      <point x="286.438" y="750.613"/>
      <point x="286.438" y="658.2" type="curve" smooth="yes"/>
      <point x="286.438" y="520.669"/>
      <point x="153.1904" y="353.24"/>
      <point x="284.839" y="353.24" type="curve" smooth="yes"/>
      <point x="322.4" y="353.24" type="line"/>
      <point x="322.4" y="319" type="line"/>
      <point x="237.161" y="319" type="line" smooth="yes"/>
      <point x="78.4365" y="319"/>
      <point x="206.049" y="533.935"/>
      <point x="206.049" y="658.2" type="curve" smooth="yes"/>
      <point x="206.049" y="708.897"/>
      <point x="158.4072" y="718.6"/>
    </contour>
    <contour>
      <point x="100" y="-57.4062" type="line"/>
      <point x="158.4072" y="-80.5996"/>
      <point x="206.049" y="-70.8975"/>
      <point x="206.049" y="-20.2002" type="curve" smooth="yes"/>
      <point x="206.049" y="104.065"/>
      <point x="78.4365" y="319"/>
      <point x="237.161" y="319" type="curve" smooth="yes"/>
      <point x="322.4" y="319" type="line"/>
      <point x="322.4" y="284.76" type="line"/>
      <point x="284.839" y="284.76" type="line" smooth="yes"/>
      <point x="153.1904" y="284.76"/>
      <point x="286.438" y="117.331"/>
      <point x="286.438" y="-20.2002" type="curve" smooth="yes"/>
      <point x="286.438" y="-112.613"/>
      <point x="218.687" y="-154.015"/>
      <point x="100" y="-129.005" type="curve"/>
    </contour>
  </outline>
</glyph>
